<svg width="105" height="101" viewBox="0 0 105 101" fill="none" xmlns="http://www.w3.org/2000/svg">
<path d="M0 6.99999C0 3.134 3.13401 0 7 0H98C101.866 0 105 3.13401 105 7V93.5634C105 97.4294 101.866 100.563 98 100.563H7C3.13401 100.563 0 97.4294 0 93.5634V6.99999Z" fill="white"/>
<rect x="-0.500483" y="0.499466" width="99.9827" height="16.9137" transform="matrix(-0.999999 -0.00106831 -0.000966577 1 102 78.1073)" fill="black" stroke="black"/>
<path d="M17 80L25.6603 65H8.33974L17 80ZM15.5 15L15.5 66.5H18.5L18.5 15H15.5Z" fill="black"/>
<path d="M54 80L62.6602 65H45.3397L54 80ZM52.5 15L52.5 66.5H55.5L55.5 15H52.5Z" fill="black"/>
<path d="M36 80L44.6602 65H27.3397L36 80ZM34.5 15L34.5 66.5H37.5L37.5 15H34.5Z" fill="black"/>
<path d="M73 80L81.6603 65H64.3398L73 80ZM71.5 15L71.5 66.5H74.5L74.5 15H71.5Z" fill="black"/>
<path d="M91 80L99.6603 65H82.3398L91 80ZM89.5 15L89.5 66.5H92.5L92.5 15H89.5Z" fill="black"/>
<path d="M17 80L25.6603 65H8.33974L17 80ZM15.5 15L15.5 66.5H18.5L18.5 15H15.5Z" fill="black"/>
</svg>
